<?xml version="1.0" standalone="no"?>
<!DOCTYPE svg PUBLIC "-//W3C//DTD SVG 20010904//EN"
 "http://www.w3.org/TR/2001/REC-SVG-20010904/DTD/svg10.dtd">
<svg version="1.0" xmlns="http://www.w3.org/2000/svg"
 width="118.000000pt" height="163.000000pt" viewBox="0 0 118.000000 163.000000"
 preserveAspectRatio="xMidYMid meet">

<g transform="translate(0.000000,163.000000) scale(0.100000,-0.100000)"
fill="#000000" stroke="none">
<path d="M539 1621 c-44 -14 -74 -39 -97 -80 -32 -56 -29 -81 8 -81 23 0 30 4
30 20 0 11 13 34 29 52 25 28 36 33 75 33 36 0 51 -6 75 -29 16 -15 32 -39 35
-52 5 -17 13 -24 31 -24 20 0 25 5 25 26 0 36 -34 89 -73 113 -39 24 -101 34
-138 22z"/>
<path d="M843 1499 c-18 -3 -44 -14 -59 -24 l-26 -17 20 -21 c20 -19 22 -19
57 -3 37 18 77 15 105 -7 49 -38 64 -103 34 -146 -16 -22 -15 -24 5 -44 21
-21 21 -21 36 -2 54 71 34 193 -40 241 -33 22 -91 32 -132 23z"/>
<path d="M209 1480 c-20 -10 -43 -30 -52 -44 -38 -57 -37 -165 2 -200 16 -15
19 -15 35 3 16 18 16 21 1 51 -22 42 -13 89 23 123 37 35 71 42 118 22 36 -15
39 -15 57 4 20 19 20 20 -14 40 -44 27 -121 27 -170 1z"/>
<path d="M526 1390 l-57 -60 -85 0 -84 0 0 -82 0 -82 -62 -63 -62 -63 62 -63
62 -63 0 -82 0 -82 69 0 c65 0 70 2 73 23 3 21 6 22 146 25 l142 3 0 -26 c0
-24 2 -25 73 -25 l72 0 -3 81 -4 82 63 63 63 63 -62 65 -62 64 0 81 0 81 -82
0 -82 0 -61 60 -61 61 -58 -61z m237 -100 l77 0 0 -72 0 -72 50 -51 50 -51
-50 -53 -50 -53 0 -74 0 -74 -45 0 -45 0 0 40 c0 26 9 52 26 77 22 32 25 46
22 89 -5 64 -28 97 -131 184 l-80 68 -84 -70 c-103 -87 -138 -141 -131 -203 3
-24 15 -57 27 -73 13 -19 21 -45 21 -71 l0 -41 -40 0 -40 0 0 72 0 72 -55 56
-55 56 55 54 55 54 0 68 0 68 73 0 73 0 49 50 49 50 51 -50 51 -50 77 0z m-85
-141 c116 -98 135 -164 75 -249 l-28 -40 -140 0 -140 0 -26 38 c-61 87 -51
123 69 240 83 82 96 91 111 79 9 -7 45 -38 79 -68z"/>
<path d="M95 1191 c-125 -78 -120 -243 9 -302 56 -25 66 -24 66 9 0 23 -6 30
-36 41 -40 14 -74 62 -74 102 0 39 40 92 78 104 26 7 32 14 32 37 0 22 -5 28
-22 28 -13 0 -36 -8 -53 -19z"/>
<path d="M1000 1180 c0 -24 4 -30 21 -30 34 0 89 -62 89 -101 0 -48 -32 -95
-74 -110 -30 -11 -36 -18 -36 -41 0 -26 2 -28 28 -22 88 21 142 87 142 173 0
46 -40 110 -84 136 -60 35 -86 33 -86 -5z"/>
<path d="M144 828 c-21 -40 -21 -115 -1 -155 46 -88 161 -120 242 -67 l26 17
-22 23 c-20 22 -24 22 -39 9 -22 -20 -90 -19 -118 1 -25 17 -52 64 -52 91 0
10 7 31 15 47 14 26 14 31 -1 48 -23 25 -31 23 -50 -14z"/>
<path d="M978 844 c-15 -15 -15 -20 -1 -49 34 -71 -18 -155 -96 -155 -20 0
-46 7 -57 15 -19 13 -23 12 -43 -9 l-21 -22 39 -22 c138 -78 297 67 233 212
-23 50 -30 54 -54 30z"/>
<path d="M40 629 c-10 -17 -9 -23 1 -30 21 -13 26 -11 32 11 3 10 -1 24 -8 30
-10 9 -16 6 -25 -11z"/>
<path d="M95 630 c-9 -28 11 -52 25 -30 6 8 9 21 7 29 -4 23 -25 24 -32 1z"/>
<path d="M424 588 c14 -73 72 -120 153 -126 49 -3 64 0 93 20 69 47 107 138
57 138 -17 0 -28 -10 -40 -35 -20 -43 -57 -67 -101 -67 -45 0 -95 35 -103 73
-5 24 -10 29 -35 29 -29 0 -30 -2 -24 -32z"/>
<path d="M164 565 c-16 -25 -13 -40 8 -40 6 0 13 -6 16 -12 2 -7 -1 -13 -6
-13 -5 0 -22 -19 -37 -42 -15 -24 -42 -55 -60 -70 -49 -41 -67 -97 -71 -213
l-3 -100 9 98 c14 155 30 185 110 207 19 5 41 19 49 32 12 19 11 23 -4 34 -16
12 -16 15 9 44 29 35 34 71 12 89 -12 10 -18 7 -32 -14z"/>
<path d="M1115 570 c-8 -27 10 -49 26 -33 13 13 8 45 -8 50 -6 2 -14 -6 -18
-17z"/>
<path d="M1142 506 c-8 -19 -8 -27 3 -36 21 -17 43 27 23 47 -13 12 -16 10
-26 -11z"/>
<path d="M1085 499 c-5 -13 -2 -25 6 -30 19 -11 29 -2 29 27 0 30 -26 32 -35
3z"/>
<path d="M1145 410 c-11 -12 -26 -18 -36 -15 -10 3 -29 -5 -46 -19 -16 -13
-37 -24 -47 -23 -10 1 -29 -13 -43 -33 -14 -19 -16 -25 -5 -12 11 12 28 22 38
22 15 0 14 -3 -6 -25 -13 -14 -31 -25 -41 -25 -9 0 -22 -7 -29 -15 -7 -8 -49
-27 -94 -41 -97 -31 -236 -42 -316 -25 -49 11 -56 10 -65 -5 -5 -9 -25 -39
-42 -66 -18 -27 -27 -48 -20 -46 6 3 23 21 36 41 23 35 26 36 65 29 64 -11
198 -5 267 12 71 19 239 104 239 121 0 15 33 45 48 45 21 0 13 -19 -15 -34
-17 -9 -22 -15 -12 -16 8 0 26 12 40 26 23 24 23 26 6 39 -18 13 -18 14 2 25
12 6 26 8 31 5 12 -7 56 21 64 41 7 19 2 18 -19 -6z"/>
<path d="M277 372 c-20 -20 -42 -52 -48 -71 -11 -31 -10 -35 11 -51 23 -17 23
-19 7 -43 -9 -14 -32 -31 -52 -37 -30 -10 -40 -9 -60 4 -31 20 -31 36 -1 109
30 73 23 75 -10 2 -26 -59 -32 -133 -12 -153 23 -23 82 -14 110 15 47 49 64
133 32 151 -14 8 -14 12 -3 30 8 12 28 29 46 37 18 9 33 22 33 30 0 24 -13 18
-53 -23z"/>
<path d="M502 360 c-7 -18 -5 -31 6 -49 15 -22 15 -25 -12 -47 -31 -27 -19
-33 13 -6 28 22 37 80 17 107 -14 20 -15 20 -24 -5z"/>
<path d="M410 283 c-22 -107 -22 -112 -6 -78 14 31 32 135 23 135 -3 0 -11
-26 -17 -57z"/>
<path d="M336 226 c-4 -16 -21 -42 -38 -58 -30 -28 -24 -37 12 -18 20 10 44
72 37 93 -2 6 -7 -1 -11 -17z"/>
</g>
</svg>
